<svg width="3300" height="2200" viewBox="0 0 3300 2200" fill="none" xmlns="http://www.w3.org/2000/svg">
<g id="bag.spark" clip-path="url(#clip0_2742_334)">
<g id="Notes">
<path id="artboard" d="M3300 0H0V2200H3300V0Z" fill="white"/>
<path id="Vector" d="M263 292H3036" stroke="black" stroke-width="0.5"/>
<text id="Weight/Scale Variations" fill="black" style="white-space: pre" xml:space="preserve" font-family="Inter" font-size="13" font-weight="bold" letter-spacing="0em"><tspan x="263" y="321.727">Weight/Scale Variations</tspan></text>
<text id="Ultralight" fill="black" style="white-space: pre" xml:space="preserve" font-family="Inter" font-size="13" letter-spacing="0em"><tspan x="531.661" y="321.727">Ultralight</tspan></text>
<text id="Thin" fill="black" style="white-space: pre" xml:space="preserve" font-family="Inter" font-size="13" letter-spacing="0em"><tspan x="843.066" y="321.727">Thin</tspan></text>
<text id="Light" fill="black" style="white-space: pre" xml:space="preserve" font-family="Inter" font-size="13" letter-spacing="0em"><tspan x="1137.77" y="321.727">Light</tspan></text>
<text id="Regular" fill="black" style="white-space: pre" xml:space="preserve" font-family="Inter" font-size="13" letter-spacing="0em"><tspan x="1426.58" y="321.727">Regular</tspan></text>
<text id="Medium" fill="black" style="white-space: pre" xml:space="preserve" font-family="Inter" font-size="13" letter-spacing="0em"><tspan x="1721.99" y="321.727">Medium</tspan></text>
<text id="Semibold" fill="black" style="white-space: pre" xml:space="preserve" font-family="Inter" font-size="13" letter-spacing="0em"><tspan x="2014.65" y="321.727">Semibold</tspan></text>
<text id="Bold" fill="black" style="white-space: pre" xml:space="preserve" font-family="Inter" font-size="13" letter-spacing="0em"><tspan x="2326.29" y="321.727">Bold</tspan></text>
<text id="Heavy" fill="black" style="white-space: pre" xml:space="preserve" font-family="Inter" font-size="13" letter-spacing="0em"><tspan x="2617.32" y="321.727">Heavy</tspan></text>
<text id="Black" fill="black" style="white-space: pre" xml:space="preserve" font-family="Inter" font-size="13" letter-spacing="0em"><tspan x="2916.8" y="321.727">Black</tspan></text>
<path id="Vector_2" d="M263 1903H3036" stroke="black" stroke-width="0.5"/>
<g id="Group">
<path id="Vector_3" d="M272.248 1933.83C276.604 1933.83 280.139 1930.3 280.139 1925.95C280.139 1921.59 276.604 1918.07 272.248 1918.07C267.902 1918.07 264.367 1921.59 264.367 1925.95C264.367 1930.3 267.902 1933.83 272.248 1933.83ZM272.248 1932.35C268.713 1932.35 265.861 1929.48 265.861 1925.95C265.861 1922.41 268.713 1919.55 272.248 1919.55C275.783 1919.55 278.645 1922.41 278.645 1925.95C278.645 1929.48 275.783 1932.35 272.248 1932.35ZM272.971 1928.79V1923.1C272.971 1922.65 272.678 1922.35 272.229 1922.35C271.799 1922.35 271.506 1922.65 271.506 1923.1V1928.79C271.506 1929.23 271.799 1929.53 272.229 1929.53C272.678 1929.53 272.971 1929.23 272.971 1928.79ZM269.406 1926.67H275.09C275.529 1926.67 275.832 1926.38 275.832 1925.95C275.832 1925.51 275.529 1925.21 275.09 1925.21H269.406C268.957 1925.21 268.654 1925.51 268.654 1925.95C268.654 1926.38 268.957 1926.67 269.406 1926.67Z" fill="black"/>
</g>
<g id="Group_2">
<path id="Vector_4" d="M293.215 1935.91C298.713 1935.91 303.176 1931.45 303.176 1925.95C303.176 1920.45 298.713 1915.99 293.215 1915.99C287.717 1915.99 283.254 1920.45 283.254 1925.95C283.254 1931.45 287.717 1935.91 293.215 1935.91ZM293.215 1934.25C288.625 1934.25 284.914 1930.54 284.914 1925.95C284.914 1921.36 288.625 1917.65 293.215 1917.65C297.805 1917.65 301.516 1921.36 301.516 1925.95C301.516 1930.54 297.805 1934.25 293.215 1934.25ZM294.025 1929.63V1922.25C294.025 1921.75 293.684 1921.41 293.195 1921.41C292.717 1921.41 292.385 1921.75 292.385 1922.25V1929.63C292.385 1930.12 292.717 1930.46 293.195 1930.46C293.684 1930.46 294.025 1930.13 294.025 1929.63ZM289.514 1926.75H296.906C297.395 1926.75 297.736 1926.43 297.736 1925.95C297.736 1925.46 297.395 1925.12 296.906 1925.12H289.514C289.016 1925.12 288.684 1925.46 288.684 1925.95C288.684 1926.43 289.016 1926.75 289.514 1926.75Z" fill="black"/>
</g>
<g id="Group_3">
<path id="Vector_5" d="M319.895 1938.66C326.916 1938.66 332.619 1932.97 332.619 1925.95C332.619 1918.93 326.916 1913.22 319.895 1913.22C312.873 1913.22 307.18 1918.93 307.18 1925.95C307.18 1932.97 312.873 1938.66 319.895 1938.66ZM319.895 1936.85C313.869 1936.85 308.996 1931.97 308.996 1925.95C308.996 1919.92 313.869 1915.05 319.895 1915.05C325.92 1915.05 330.793 1919.92 330.793 1925.95C330.793 1931.97 325.92 1936.85 319.895 1936.85ZM320.783 1930.78V1921.09C320.783 1920.54 320.412 1920.16 319.875 1920.16C319.357 1920.16 318.986 1920.54 318.986 1921.09V1930.78C318.986 1931.32 319.357 1931.7 319.875 1931.7C320.412 1931.7 320.783 1931.33 320.783 1930.78ZM315.041 1926.83H324.738C325.275 1926.83 325.656 1926.47 325.656 1925.95C325.656 1925.4 325.285 1925.03 324.738 1925.03H315.041C314.494 1925.03 314.123 1925.4 314.123 1925.95C314.123 1926.47 314.494 1926.83 315.041 1926.83Z" fill="black"/>
</g>
<text id="Design Variations" fill="black" style="white-space: pre" xml:space="preserve" font-family="Inter" font-size="13" font-weight="bold" letter-spacing="0em"><tspan x="263" y="1952.73">Design Variations</tspan></text>
<text id="Symbols are supported in up to nine weights and three scales." fill="black" style="white-space: pre" xml:space="preserve" font-family="Inter" font-size="13" letter-spacing="0em"><tspan x="263" y="1970.73">Symbols are supported in up to nine weights and three scales.</tspan></text>
<text id="For optimal layout with text and other symbols, vertically align" fill="black" style="white-space: pre" xml:space="preserve" font-family="Inter" font-size="13" letter-spacing="0em"><tspan x="263" y="1988.73">For optimal layout with text and other symbols, vertically align</tspan></text>
<text id="symbols with the adjacent text." fill="black" style="white-space: pre" xml:space="preserve" font-family="Inter" font-size="13" letter-spacing="0em"><tspan x="263" y="2006.73">symbols with the adjacent text.</tspan></text>
<path id="Vector_6" d="M776 1919V1933" stroke="#00AEEF" stroke-width="0.5"/>
<g id="Group_4">
<path id="Vector_7" d="M779.311 1933.16C779.828 1933.16 780.082 1932.96 780.268 1932.41L784.379 1920.91H784.428L788.549 1932.41C788.734 1932.96 788.988 1933.16 789.496 1933.16C790.014 1933.16 790.346 1932.84 790.346 1932.36C790.346 1932.19 790.316 1932.03 790.238 1931.83L785.658 1919.63C785.434 1919.04 785.033 1918.73 784.408 1918.73C783.803 1918.73 783.393 1919.03 783.178 1919.62L778.598 1931.84C778.52 1932.04 778.49 1932.2 778.49 1932.37C778.49 1932.85 778.803 1933.16 779.311 1933.16ZM781.352 1928.97H787.484C787.885 1928.97 788.217 1928.63 788.217 1928.23C788.217 1927.82 787.885 1927.5 787.484 1927.5H781.352C780.951 1927.5 780.619 1927.82 780.619 1928.23C780.619 1928.63 780.951 1928.97 781.352 1928.97Z" fill="black"/>
</g>
<path id="Vector_8" d="M792.836 1919V1933" stroke="#00AEEF" stroke-width="0.5"/>
<text id="Margins" fill="black" style="white-space: pre" xml:space="preserve" font-family="Inter" font-size="13" font-weight="bold" letter-spacing="0em"><tspan x="776" y="1952.73">Margins</tspan></text>
<text id="Leading and trailing margins on the left and right side of each symbol" fill="black" style="white-space: pre" xml:space="preserve" font-family="Inter" font-size="13" letter-spacing="0em"><tspan x="776" y="1970.73">Leading and trailing margins on the left and right side of each symbol</tspan></text>
<text id="can be adjusted by modifying the x-location of the margin guidelines." fill="black" style="white-space: pre" xml:space="preserve" font-family="Inter" font-size="13" letter-spacing="0em"><tspan x="776" y="1988.73">can be adjusted by modifying the x-location of the margin guidelines.</tspan></text>
<text id="Modifications are automatically applied proportionally to all" fill="black" style="white-space: pre" xml:space="preserve" font-family="Inter" font-size="13" letter-spacing="0em"><tspan x="776" y="2006.73">Modifications are automatically applied proportionally to all</tspan></text>
<text id="scales and weights." fill="black" style="white-space: pre" xml:space="preserve" font-family="Inter" font-size="13" letter-spacing="0em"><tspan x="776" y="2024.73">scales and weights.</tspan></text>
<g id="Group_5">
<path id="Vector_9" d="M1291.84 1935.63L1293.41 1937.2C1294.27 1938.08 1295.28 1938.02 1296.19 1936.99L1308.33 1923.35L1307.35 1922.38L1295.3 1935.91C1294.94 1936.3 1294.61 1936.4 1294.14 1935.93L1293.1 1934.9C1292.64 1934.45 1292.74 1934.11 1293.14 1933.74L1306.64 1921.31L1305.66 1920.34L1292.05 1932.86C1291.05 1933.78 1290.98 1934.76 1291.84 1935.63ZM1300.82 1916.13C1300.41 1916.54 1300.37 1917.11 1300.6 1917.49C1300.83 1917.85 1301.3 1918.1 1301.92 1917.94C1303.09 1917.61 1304.44 1917.46 1305.7 1918.13L1305.16 1919.55C1304.84 1920.35 1305.02 1920.93 1305.5 1921.44L1307.56 1923.5C1308.02 1923.98 1308.46 1923.99 1308.97 1923.89L1309.86 1923.74L1310.38 1924.25L1310.34 1924.7C1310.32 1925.16 1310.45 1925.56 1310.89 1926L1311.57 1926.66C1312.03 1927.12 1312.67 1927.16 1313.13 1926.7L1315.73 1924.09C1316.19 1923.63 1316.16 1923.02 1315.69 1922.56L1315.01 1921.88C1314.57 1921.44 1314.2 1921.27 1313.74 1921.3L1313.27 1921.35L1312.78 1920.86L1312.98 1919.92C1313.11 1919.38 1312.94 1918.93 1312.41 1918.4L1310.15 1916.16C1307.56 1913.6 1303.03 1913.96 1300.82 1916.13ZM1302.23 1916.54C1303.99 1915.27 1307.43 1915.41 1308.97 1916.94L1311.43 1919.38C1311.64 1919.58 1311.68 1919.74 1311.62 1920.04L1311.32 1921.37L1312.67 1922.71L1313.55 1922.66C1313.78 1922.65 1313.85 1922.67 1314.02 1922.83L1314.53 1923.33L1312.36 1925.5L1311.86 1925C1311.7 1924.83 1311.67 1924.76 1311.68 1924.52L1311.73 1923.65L1310.4 1922.31L1309.03 1922.54C1308.75 1922.6 1308.62 1922.58 1308.39 1922.37L1306.61 1920.59C1306.39 1920.38 1306.37 1920.25 1306.51 1919.91L1307.43 1917.62C1306.21 1916.35 1304.02 1916.12 1302.31 1916.7C1302.17 1916.75 1302.13 1916.62 1302.23 1916.54Z" fill="black"/>
</g>
<text id="Exporting" fill="black" style="white-space: pre" xml:space="preserve" font-family="Inter" font-size="13" font-weight="bold" letter-spacing="0em"><tspan x="1289" y="1952.73">Exporting</tspan></text>
<text id="Symbols should be outlined when exporting to ensure the" fill="black" style="white-space: pre" xml:space="preserve" font-family="Inter" font-size="13" letter-spacing="0em"><tspan x="1289" y="1970.73">Symbols should be outlined when exporting to ensure the</tspan></text>
<text id="design is preserved when submitting to Xcode." fill="black" style="white-space: pre" xml:space="preserve" font-family="Inter" font-size="13" letter-spacing="0em"><tspan x="1289" y="1988.73">design is preserved when submitting to Xcode.</tspan></text>
<text id="template-version" fill="black" style="white-space: pre" xml:space="preserve" font-family="Inter" font-size="13" letter-spacing="0em"><tspan x="2948.26" y="1932.73">Template v.7.0</tspan></text>
<text id="Requires Xcode 26 or greater" fill="black" style="white-space: pre" xml:space="preserve" font-family="Inter" font-size="13" letter-spacing="0em"><tspan x="2856.34" y="1950.73">Requires Xcode 26 or greater</tspan></text>
<text id="descriptive-name" fill="black" style="white-space: pre" xml:space="preserve" font-family="Inter" font-size="13" letter-spacing="0em"><tspan x="2912.16" y="1968.73">Generated from bag</tspan></text>
<text id="Typeset at 100.0 points" fill="black" style="white-space: pre" xml:space="preserve" font-family="Inter" font-size="13" letter-spacing="0em"><tspan x="2892.56" y="1986.73">Typeset at 100.0 points</tspan></text>
<text id="Small" fill="black" style="white-space: pre" xml:space="preserve" font-family="Inter" font-size="13" letter-spacing="0em"><tspan x="263" y="725.727">Small</tspan></text>
<text id="Medium_2" fill="black" style="white-space: pre" xml:space="preserve" font-family="Inter" font-size="13" letter-spacing="0em"><tspan x="263" y="1155.73">Medium</tspan></text>
<text id="Large" fill="black" style="white-space: pre" xml:space="preserve" font-family="Inter" font-size="13" letter-spacing="0em"><tspan x="263" y="1585.73">Large</tspan></text>
</g>
<g id="Guides">
<g id="H-reference">
<path id="Vector_10" d="M339.994 696H342.638L368.329 628.868H369.031V625.541H367.123L339.994 696ZM350.689 671.52H385.982L385.232 669.272H351.439L350.689 671.52ZM394.12 696H396.764L369.639 625.541H368.433V628.868L394.12 696Z" fill="#27AAE1"/>
</g>
<path id="Baseline-S" d="M263 696H3036" stroke="#27AAE1" stroke-width="0.5"/>
<path id="Capline-S" d="M263 625.541H3036" stroke="#27AAE1" stroke-width="0.5"/>
<g id="H-reference_2">
<path id="Vector_11" d="M339.994 1126H342.638L368.329 1058.87H369.031V1055.54H367.123L339.994 1126ZM350.689 1101.52H385.982L385.232 1099.27H351.439L350.689 1101.52ZM394.12 1126H396.764L369.639 1055.54H368.433V1058.87L394.12 1126Z" fill="#27AAE1"/>
</g>
<path id="Baseline-M" d="M263 1126H3036" stroke="#27AAE1" stroke-width="0.5"/>
<path id="Capline-M" d="M263 1055.54H3036" stroke="#27AAE1" stroke-width="0.5"/>
<g id="H-reference_3">
<path id="Vector_12" d="M339.994 1556H342.638L368.329 1488.87H369.031V1485.54H367.123L339.994 1556ZM350.689 1531.52H385.982L385.232 1529.27H351.439L350.689 1531.52ZM394.12 1556H396.764L369.639 1485.54H368.433V1488.87L394.12 1556Z" fill="#27AAE1"/>
</g>
<path id="Baseline-L" d="M263 1556H3036" stroke="#27AAE1" stroke-width="0.5"/>
<path id="Capline-L" d="M263 1485.54H3036" stroke="#27AAE1" stroke-width="0.5"/>
<path id="right-margin-Regular-M" d="M1505.63 1030.79V1150.12" stroke="#00AEEF" stroke-width="0.5"/>
<path id="left-margin-Regular-M" d="M1394.06 1030.79V1150.12" stroke="#00AEEF" stroke-width="0.5"/>
</g>
<g id="Symbols">
<g id="Black-L">
<g id="Vector_13">
<path d="M2984.5 1589C2983.82 1589 2983.37 1588.66 2983.14 1587.98C2981.34 1581.09 2977.89 1575.16 2972.81 1570.19C2967.84 1565.11 2961.91 1561.66 2955.02 1559.86C2954.34 1559.63 2954 1559.18 2954 1558.5C2954 1557.71 2954.34 1557.26 2955.02 1557.14C2961.91 1555.34 2967.84 1551.95 2972.81 1546.98C2977.89 1541.89 2981.34 1535.91 2983.14 1529.02C2983.37 1528.34 2983.82 1528 2984.5 1528C2985.29 1528 2985.74 1528.34 2985.86 1529.02C2987.78 1535.91 2991.22 1541.89 2996.19 1546.98C3001.16 1551.95 3007.09 1555.34 3013.98 1557.14C3014.66 1557.26 3015 1557.71 3015 1558.5C3015 1559.18 3014.66 1559.63 3013.98 1559.86C3007.09 1561.66 3001.11 1565.11 2996.02 1570.19C2991.05 1575.16 2987.66 1581.09 2985.86 1587.98C2985.74 1588.66 2985.29 1589 2984.5 1589Z" fill="black"/>
<path fill-rule="evenodd" clip-rule="evenodd" d="M2933.39 1451.66C2949.93 1451.66 2962.05 1462.34 2963.63 1477.56H2970.09C2985.23 1477.56 2993.86 1486.17 2993.86 1501.27V1522.78C2993.24 1521.87 2992.44 1521.01 2991.43 1520.25C2989.06 1518.48 2986.55 1518.05 2984.83 1518L2984.5 1518C2982.44 1518 2979.93 1518.54 2977.65 1520.25C2975.67 1521.74 2974.53 1523.61 2973.88 1525.24V1504.11C2973.88 1499.5 2971.65 1497.57 2967.36 1497.57H2899.45C2895.13 1497.57 2892.92 1499.5 2892.92 1504.11V1563.28C2892.92 1567.91 2895.13 1569.82 2899.45 1569.82H2953.51C2958.2 1571.22 2962.21 1573.65 2965.66 1577.18L2965.74 1577.26L2965.82 1577.34C2969.41 1580.85 2971.86 1584.93 2973.25 1589.72C2972.41 1589.79 2971.55 1589.82 2970.67 1589.82H2896.71C2881.57 1589.82 2872.94 1581.21 2872.94 1566.11V1501.27C2872.94 1486.17 2881.57 1477.56 2896.71 1477.56H2903.16C2904.74 1462.34 2916.88 1451.66 2933.39 1451.66ZM2933.39 1467.62C2927.34 1467.62 2922.85 1471.55 2921.58 1477.56H2945.22C2943.96 1471.55 2939.47 1467.62 2933.39 1467.62Z" fill="black"/>
<path d="M2984.5 1528C2985.29 1528 2985.74 1528.34 2985.86 1529.02C2987.46 1534.77 2990.13 1539.9 2993.86 1544.39V1566.11C2993.86 1568.77 2993.59 1571.24 2993.07 1573.48C2990.46 1576.75 2988.43 1580.37 2986.99 1584.34C2985.78 1585.44 2984.42 1586.38 2982.92 1587.16C2981.06 1580.62 2977.69 1574.96 2972.81 1570.19C2972.38 1569.76 2971.95 1569.34 2971.51 1568.93C2973.03 1567.95 2973.88 1566.13 2973.88 1563.28V1545.86C2978.23 1541.19 2981.26 1535.79 2982.97 1529.66L2983.14 1529.02C2983.37 1528.34 2983.82 1528 2984.5 1528Z" fill="black"/>
</g>
</g>
<g id="Heavy-L">
<g id="Vector_14">
<path d="M2687.5 1588C2686.82 1588 2686.37 1587.66 2686.14 1586.98C2684.34 1580.09 2680.89 1574.16 2675.81 1569.19C2670.84 1564.11 2664.91 1560.66 2658.02 1558.86C2657.34 1558.63 2657 1558.18 2657 1557.5C2657 1556.71 2657.34 1556.26 2658.02 1556.14C2664.91 1554.34 2670.84 1550.95 2675.81 1545.98C2680.89 1540.89 2684.34 1534.91 2686.14 1528.02C2686.37 1527.34 2686.82 1527 2687.5 1527C2688.29 1527 2688.74 1527.34 2688.86 1528.02C2690.78 1534.91 2694.22 1540.89 2699.19 1545.98C2704.16 1550.95 2710.09 1554.34 2716.98 1556.14C2717.66 1556.26 2718 1556.71 2718 1557.5C2718 1558.18 2717.66 1558.63 2716.98 1558.86C2710.09 1560.66 2704.11 1564.11 2699.02 1569.19C2694.05 1574.16 2690.66 1580.09 2688.86 1586.98C2688.74 1587.66 2688.29 1588 2687.5 1588Z" fill="black"/>
<path fill-rule="evenodd" clip-rule="evenodd" d="M2636.67 1453.09C2652.4 1453.09 2664.05 1463.51 2665.53 1478.1H2673.26C2687.87 1478.1 2696 1486.22 2696 1500.76V1520.69C2695.55 1520.18 2695.03 1519.7 2694.43 1519.25C2692.06 1517.48 2689.55 1517.05 2687.83 1517.01L2687.5 1517C2685.44 1517 2682.93 1517.54 2680.65 1519.25C2679.79 1519.9 2679.08 1520.63 2678.5 1521.37V1503.04C2678.5 1497.93 2675.92 1495.64 2671.13 1495.64H2602.25C2597.41 1495.64 2594.88 1497.93 2594.88 1503.04V1563.46C2594.88 1568.6 2597.41 1570.86 2602.25 1570.86H2661.56C2664.16 1572.22 2666.51 1573.99 2668.66 1576.18L2668.74 1576.26L2668.82 1576.34C2672.31 1579.75 2674.72 1583.7 2676.13 1588.33C2675.47 1588.37 2674.79 1588.39 2674.1 1588.39H2600.12C2585.51 1588.39 2577.38 1580.29 2577.38 1565.73V1500.76C2577.38 1486.21 2585.51 1478.1 2600.12 1478.1H2607.82C2609.31 1463.51 2620.98 1453.09 2636.67 1453.09ZM2636.67 1467.41C2630.15 1467.41 2625.37 1471.67 2624.15 1478.1H2649.23C2648.01 1471.67 2643.22 1467.41 2636.67 1467.41Z" fill="black"/>
<path d="M2687.5 1527C2688.29 1527 2688.74 1527.34 2688.86 1528.02C2690.33 1533.32 2692.72 1538.09 2696 1542.33V1565.73C2696 1568.74 2695.66 1571.47 2694.99 1573.91C2693.09 1576.52 2691.55 1579.34 2690.35 1582.38C2689.05 1583.75 2687.53 1584.89 2685.81 1585.8C2683.98 1579.58 2680.78 1574.17 2676.19 1569.57C2677.66 1568.4 2678.5 1566.4 2678.5 1563.46V1543.01C2681.99 1538.78 2684.48 1533.99 2685.97 1528.66L2686.14 1528.02C2686.37 1527.34 2686.82 1527 2687.5 1527Z" fill="black"/>
</g>
</g>
<g id="Bold-L">
<g id="Vector_15">
<path d="M2390.5 1589C2389.82 1589 2389.37 1588.66 2389.14 1587.98C2387.34 1581.09 2383.89 1575.16 2378.81 1570.19C2373.84 1565.11 2367.91 1561.66 2361.02 1559.86C2360.34 1559.63 2360 1559.18 2360 1558.5C2360 1557.71 2360.34 1557.26 2361.02 1557.14C2367.91 1555.34 2373.84 1551.95 2378.81 1546.98C2383.89 1541.89 2387.34 1535.91 2389.14 1529.02C2389.37 1528.34 2389.82 1528 2390.5 1528C2391.29 1528 2391.74 1528.34 2391.86 1529.02C2393.78 1535.91 2397.22 1541.89 2402.19 1546.98C2407.16 1551.95 2413.09 1555.34 2419.98 1557.14C2420.66 1557.26 2421 1557.71 2421 1558.5C2421 1559.18 2420.66 1559.63 2419.98 1559.86C2413.09 1561.66 2407.11 1565.11 2402.02 1570.19C2397.05 1575.16 2393.66 1581.09 2391.86 1587.98C2391.74 1588.66 2391.29 1589 2390.5 1589Z" fill="black"/>
<path fill-rule="evenodd" clip-rule="evenodd" d="M2339.96 1454.85C2354.69 1454.85 2365.75 1464.92 2367.13 1478.73H2376.43C2390.34 1478.73 2397.88 1486.26 2397.88 1500.07V1521.96C2397.56 1521.65 2397.22 1521.34 2396.83 1521.05C2394.68 1519.44 2392.39 1519.05 2390.81 1519L2390.5 1519C2388.61 1519 2386.33 1519.5 2384.25 1521.05C2383.96 1521.27 2383.69 1521.5 2383.44 1521.73V1501.71C2383.44 1495.96 2380.41 1493.21 2374.98 1493.21H2304.98C2299.46 1493.21 2296.52 1495.96 2296.52 1501.71V1563.65C2296.52 1569.44 2299.46 1572.15 2304.98 1572.15H2367.06C2368.96 1573.36 2370.73 1574.8 2372.37 1576.48L2372.44 1576.56L2372.52 1576.63C2375.49 1579.54 2377.72 1582.83 2379.22 1586.58C2378.65 1586.62 2378.07 1586.63 2377.48 1586.63H2303.53C2289.62 1586.63 2282.07 1579.13 2282.07 1565.29V1500.07C2282.07 1486.23 2289.62 1478.73 2303.53 1478.73H2312.79C2314.18 1464.92 2325.27 1454.85 2339.96 1454.85ZM2339.96 1467.06C2332.86 1467.06 2327.66 1471.76 2326.5 1478.73H2353.46C2352.29 1471.76 2347.09 1467.06 2339.96 1467.06Z" fill="black"/>
<path d="M2390.5 1528C2391.29 1528 2391.74 1528.34 2391.86 1529.02C2393.16 1533.7 2395.17 1537.96 2397.88 1541.81V1565.29C2397.88 1574.73 2394.37 1581.24 2388.03 1584.41C2386.23 1579.48 2383.51 1575.1 2379.86 1571.26C2382.08 1570.03 2383.44 1567.54 2383.44 1563.65V1541.45C2385.93 1537.88 2387.77 1533.95 2388.97 1529.66L2389.14 1529.02C2389.37 1528.34 2389.82 1528 2390.5 1528Z" fill="black"/>
</g>
</g>
<g id="Semibold-L">
<g id="Vector_16">
<path d="M2093.5 1590C2092.82 1590 2092.37 1589.66 2092.14 1588.98C2090.34 1582.09 2086.89 1576.16 2081.81 1571.19C2076.84 1566.11 2070.91 1562.66 2064.02 1560.86C2063.34 1560.63 2063 1560.18 2063 1559.5C2063 1558.71 2063.34 1558.26 2064.02 1558.14C2070.91 1556.34 2076.84 1552.95 2081.81 1547.98C2086.89 1542.89 2090.34 1536.91 2092.14 1530.02C2092.37 1529.34 2092.82 1529 2093.5 1529C2094.29 1529 2094.74 1529.34 2094.86 1530.02C2096.78 1536.91 2100.22 1542.89 2105.19 1547.98C2110.16 1552.95 2116.09 1556.34 2122.98 1558.14C2123.66 1558.26 2124 1558.71 2124 1559.5C2124 1560.18 2123.66 1560.63 2122.98 1560.86C2116.09 1562.66 2110.11 1566.11 2105.02 1571.19C2100.05 1576.16 2096.66 1582.09 2094.86 1588.98C2094.74 1589.66 2094.29 1590 2093.5 1590Z" fill="black"/>
<path fill-rule="evenodd" clip-rule="evenodd" d="M2043.25 1456.07C2057.28 1456.07 2067.94 1465.9 2069.25 1479.16H2079.63C2093.06 1479.16 2100.2 1486.29 2100.2 1499.6V1522.34C2100.08 1522.25 2099.96 1522.15 2099.83 1522.05C2097.68 1520.44 2095.39 1520.05 2093.81 1520L2093.5 1520C2091.8 1520 2089.77 1520.41 2087.87 1521.63V1500.79C2087.87 1494.6 2084.53 1491.53 2078.65 1491.53H2007.88C2001.89 1491.53 1998.67 1494.6 1998.67 1500.79V1563.79C1998.67 1570.02 2001.89 1573.04 2007.88 1573.04H2069.88C2071.85 1574.27 2073.68 1575.75 2075.37 1577.48L2075.44 1577.56L2075.52 1577.63C2077.91 1579.96 2079.81 1582.55 2081.25 1585.41C2081.11 1585.42 2080.97 1585.42 2080.83 1585.42H2006.9C1993.47 1585.42 1986.33 1578.33 1986.33 1564.98V1499.6C1986.33 1486.25 1993.47 1479.16 2006.9 1479.16H2017.24C2018.55 1465.9 2029.25 1456.07 2043.25 1456.07ZM2043.25 1466.83C2035.74 1466.83 2030.26 1471.83 2029.14 1479.16H2057.39C2056.27 1471.83 2050.78 1466.83 2043.25 1466.83Z" fill="black"/>
<path d="M2093.5 1529C2094.29 1529 2094.74 1529.34 2094.86 1530.02C2096.05 1534.3 2097.83 1538.23 2100.2 1541.81V1564.98C2100.2 1574.36 2096.68 1580.67 2090.3 1583.58C2088.57 1579.48 2086.16 1575.78 2083.06 1572.48C2085.98 1571.34 2087.87 1568.47 2087.87 1563.79V1540.25C2089.64 1537.28 2091.01 1534.08 2091.97 1530.66L2092.14 1530.02C2092.37 1529.34 2092.82 1529 2093.5 1529Z" fill="black"/>
</g>
</g>
<g id="Medium-L">
<g id="Vector_17">
<path d="M1796.5 1591C1795.82 1591 1795.37 1590.66 1795.14 1589.98C1793.34 1583.09 1789.89 1577.16 1784.81 1572.19C1779.84 1567.11 1773.91 1563.66 1767.02 1561.86C1766.34 1561.63 1766 1561.18 1766 1560.5C1766 1559.71 1766.34 1559.26 1767.02 1559.14C1773.91 1557.34 1779.84 1553.95 1784.81 1548.98C1789.89 1543.89 1793.34 1537.91 1795.14 1531.02C1795.37 1530.34 1795.82 1530 1796.5 1530C1797.29 1530 1797.74 1530.34 1797.86 1531.02C1799.78 1537.91 1803.22 1543.89 1808.19 1548.98C1813.16 1553.95 1819.09 1557.34 1825.98 1559.14C1826.66 1559.26 1827 1559.71 1827 1560.5C1827 1561.18 1826.66 1561.63 1825.98 1561.86C1819.09 1563.66 1813.11 1567.11 1808.02 1572.19C1803.05 1577.16 1799.66 1583.09 1797.86 1589.98C1797.74 1590.66 1797.29 1591 1796.5 1591Z" fill="black"/>
<path fill-rule="evenodd" clip-rule="evenodd" d="M1746.54 1456.99C1760.05 1456.99 1770.41 1466.63 1771.65 1479.48H1782.86C1795.93 1479.48 1802.75 1486.31 1802.75 1499.23V1524.28C1802.59 1524.14 1802.41 1523.99 1802.23 1523.86C1800.29 1522.4 1798.23 1522.04 1796.78 1522L1796.5 1522C1795.14 1522 1793.55 1522.29 1792.02 1523.11V1500.1C1792.02 1493.56 1788.45 1490.27 1782.24 1490.27H1710.88C1704.53 1490.27 1701.1 1493.56 1701.1 1500.1V1563.89C1701.1 1570.47 1704.53 1573.72 1710.88 1573.72H1774.22C1775.95 1574.88 1777.57 1576.23 1779.09 1577.78L1779.15 1577.85L1779.22 1577.91C1781.27 1579.92 1782.98 1582.11 1784.35 1584.5C1784.29 1584.5 1784.23 1584.5 1784.17 1584.5H1710.26C1697.19 1584.5 1690.36 1577.72 1690.36 1564.75V1499.23C1690.36 1486.26 1697.19 1479.48 1710.26 1479.48H1721.42C1722.67 1466.63 1733.07 1456.99 1746.54 1456.99ZM1746.54 1466.65C1738.72 1466.65 1733.03 1471.88 1731.95 1479.48H1761.17C1760.09 1471.88 1754.37 1466.65 1746.54 1466.65Z" fill="black"/>
<path d="M1796.5 1530C1797.29 1530 1797.74 1530.34 1797.86 1531.02C1798.97 1535.02 1800.61 1538.73 1802.75 1542.12V1564.75C1802.75 1574.18 1799.14 1580.36 1792.6 1583.02C1790.93 1579.51 1788.73 1576.31 1786 1573.41C1789.6 1572.46 1792.02 1569.31 1792.02 1563.89V1539.18C1793.25 1536.81 1794.23 1534.3 1794.97 1531.66L1795.14 1531.02C1795.37 1530.34 1795.82 1530 1796.5 1530Z" fill="black"/>
</g>
</g>
<g id="Regular-L">
<g id="Vector_18">
<path d="M1499.5 1592C1498.82 1592 1498.37 1591.66 1498.14 1590.98C1496.34 1584.09 1492.89 1578.16 1487.81 1573.19C1482.84 1568.11 1476.91 1564.66 1470.02 1562.86C1469.34 1562.63 1469 1562.18 1469 1561.5C1469 1560.71 1469.34 1560.26 1470.02 1560.14C1476.91 1558.34 1482.84 1554.95 1487.81 1549.98C1492.89 1544.89 1496.34 1538.91 1498.14 1532.02C1498.37 1531.34 1498.82 1531 1499.5 1531C1500.29 1531 1500.74 1531.34 1500.86 1532.02C1502.78 1538.91 1506.22 1544.89 1511.19 1549.98C1516.16 1554.95 1522.09 1558.34 1528.98 1560.14C1529.66 1560.26 1530 1560.71 1530 1561.5C1530 1562.18 1529.66 1562.63 1528.98 1562.86C1522.09 1564.66 1516.11 1568.11 1511.02 1573.19C1506.05 1578.16 1502.66 1584.09 1500.86 1590.98C1500.74 1591.66 1500.29 1592 1499.5 1592Z" fill="black"/>
<path fill-rule="evenodd" clip-rule="evenodd" d="M1449.82 1458.19C1462.66 1458.19 1472.62 1467.6 1473.79 1479.91H1486.07C1498.66 1479.91 1505.08 1486.33 1505.08 1498.76V1524.75C1503.19 1523.38 1501.19 1523.04 1499.78 1523L1499.5 1523C1498.55 1523 1497.5 1523.14 1496.43 1523.5V1499.19C1496.43 1492.22 1492.56 1488.61 1485.91 1488.61H1413.79C1406.98 1488.61 1403.26 1492.22 1403.26 1499.19V1564.02C1403.26 1571.04 1406.98 1574.6 1413.79 1574.6H1477.04C1478.84 1575.79 1480.52 1577.18 1482.09 1578.78L1482.15 1578.85L1482.22 1578.91C1483.62 1580.29 1484.87 1581.75 1485.95 1583.3H1413.63C1401.04 1583.3 1394.61 1576.93 1394.61 1564.44V1498.76C1394.61 1486.28 1401.04 1479.91 1413.63 1479.91H1425.86C1427.03 1467.6 1437.04 1458.19 1449.82 1458.19ZM1449.82 1466.41C1441.6 1466.41 1435.63 1471.96 1434.6 1479.91H1465.09C1464.06 1471.96 1458.06 1466.41 1449.82 1466.41Z" fill="black"/>
<path d="M1499.5 1531C1500.29 1531 1500.74 1531.34 1500.86 1532.02C1501.85 1535.59 1503.26 1538.93 1505.08 1542.02V1564.44C1505.08 1573.91 1501.39 1579.89 1494.68 1582.21C1493.15 1579.42 1491.28 1576.84 1489.05 1574.46C1493.38 1573.75 1496.43 1570.26 1496.43 1564.02V1537.13C1497.03 1535.68 1497.54 1534.2 1497.97 1532.66L1498.14 1532.02C1498.37 1531.34 1498.82 1531 1499.5 1531Z" fill="black"/>
</g>
</g>
<g id="Light-L">
<g id="Vector_19">
<path d="M1202.5 1593C1201.82 1593 1201.37 1592.66 1201.14 1591.98C1199.34 1585.09 1195.89 1579.16 1190.81 1574.19C1185.84 1569.11 1179.91 1565.66 1173.02 1563.86C1172.34 1563.63 1172 1563.18 1172 1562.5C1172 1561.71 1172.34 1561.26 1173.02 1561.14C1179.91 1559.34 1185.84 1555.95 1190.81 1550.98C1195.89 1545.89 1199.34 1539.91 1201.14 1533.02C1201.37 1532.34 1201.82 1532 1202.5 1532C1203.29 1532 1203.74 1532.34 1203.86 1533.02C1205.78 1539.91 1209.22 1545.89 1214.19 1550.98C1219.16 1555.95 1225.09 1559.34 1231.98 1561.14C1232.66 1561.26 1233 1561.71 1233 1562.5C1233 1563.18 1232.66 1563.63 1231.98 1563.86C1225.09 1565.66 1219.11 1569.11 1214.02 1574.19C1209.05 1579.16 1205.66 1585.09 1203.86 1591.98C1203.74 1592.66 1203.29 1593 1202.5 1593Z" fill="black"/>
<path fill-rule="evenodd" clip-rule="evenodd" d="M1153.12 1459.31C1165.3 1459.31 1174.89 1468.29 1176.05 1480.04H1189.46C1201.31 1480.04 1207.44 1486.24 1207.44 1497.93V1526.52C1205.89 1525.42 1204.26 1525.08 1203.02 1525.02L1202.5 1525C1201.97 1525 1201.4 1525.05 1200.82 1525.16V1498.25C1200.82 1490.63 1196.6 1486.7 1189.3 1486.7H1116.97C1109.45 1486.7 1105.45 1490.63 1105.45 1498.25V1563.92C1105.45 1571.58 1109.45 1575.48 1116.97 1575.48H1181.62C1183.09 1576.54 1184.49 1577.74 1185.8 1579.09L1185.86 1579.14L1185.91 1579.2C1186.88 1580.14 1187.76 1581.12 1188.58 1582.13H1116.81C1104.96 1582.13 1098.82 1576.03 1098.82 1564.25V1497.93C1098.82 1486.14 1104.96 1480.04 1116.81 1480.04H1130.18C1131.34 1468.29 1140.96 1459.31 1153.12 1459.31ZM1153.12 1465.67C1144.46 1465.67 1137.94 1471.68 1136.88 1480.04H1169.38C1168.32 1471.68 1161.76 1465.67 1153.12 1465.67Z" fill="black"/>
<path d="M1202.5 1532C1203.29 1532 1203.74 1532.34 1203.86 1533.02C1204.73 1536.16 1205.93 1539.12 1207.44 1541.89V1564.25C1207.44 1573.5 1203.62 1579.31 1196.58 1581.33C1195.26 1579.22 1193.72 1577.23 1191.96 1575.37C1197.36 1574.7 1200.82 1570.85 1200.82 1563.92V1534.2C1200.87 1534.02 1200.92 1533.84 1200.97 1533.66L1201.14 1533.02C1201.37 1532.34 1201.82 1532 1202.5 1532Z" fill="black"/>
</g>
</g>
<g id="Thin-L">
<g id="Vector_20">
<path d="M906.5 1592C905.822 1592 905.37 1591.66 905.144 1590.98C903.337 1584.09 899.892 1578.16 894.808 1573.19C889.838 1568.11 883.907 1564.66 877.017 1562.86C876.339 1562.63 876 1562.18 876 1561.5C876 1560.71 876.339 1560.26 877.017 1560.14C883.907 1558.34 889.838 1554.95 894.808 1549.98C899.892 1544.89 903.337 1538.91 905.144 1532.02C905.37 1531.34 905.822 1531 906.5 1531C907.291 1531 907.743 1531.34 907.856 1532.02C909.776 1538.91 913.221 1544.89 918.192 1549.98C923.162 1554.95 929.093 1558.34 935.983 1560.14C936.661 1560.26 937 1560.71 937 1561.5C937 1562.18 936.661 1562.63 935.983 1562.86C929.093 1564.66 923.106 1568.11 918.022 1573.19C913.052 1578.16 909.663 1584.09 907.856 1590.98C907.743 1591.66 907.291 1592 906.5 1592Z" fill="black"/>
<path fill-rule="evenodd" clip-rule="evenodd" d="M856.418 1460.8C867.743 1460.8 876.841 1469.2 877.982 1480.22H892.886C903.75 1480.22 909.506 1486.11 909.506 1496.81V1525.58C908.594 1525.2 907.708 1525.05 906.97 1525.01L906.5 1525C906.196 1525 905.88 1525.02 905.556 1525.06V1497.02C905.556 1488.54 900.883 1484.18 892.726 1484.18H820.119C811.665 1484.18 807.288 1488.54 807.288 1497.02V1563.8C807.288 1572.28 811.666 1576.64 820.119 1576.64H889.762C890.017 1576.88 890.269 1577.13 890.519 1577.39L890.565 1577.44L890.613 1577.48C891.629 1578.48 892.565 1579.51 893.424 1580.59C893.3 1580.59 893.176 1580.6 893.051 1580.6H819.958C809.094 1580.6 803.338 1574.85 803.338 1564V1496.81C803.338 1485.97 809.094 1480.22 819.958 1480.22H834.854C835.996 1469.2 845.101 1460.8 856.418 1460.8ZM856.418 1464.69C847.188 1464.69 839.931 1471.32 838.834 1480.22H874.009C872.903 1471.32 865.589 1464.69 856.418 1464.69Z" fill="black"/>
<path d="M906.5 1531C907.291 1531 907.743 1531.34 907.856 1532.02C908.317 1533.67 908.868 1535.28 909.506 1536.83V1564C909.506 1572.06 906.246 1577.39 900.064 1579.53C899.271 1578.33 898.407 1577.18 897.471 1576.06C902.638 1574.62 905.556 1570.5 905.556 1563.8V1531.34C905.796 1531.11 906.111 1531 906.5 1531Z" fill="black"/>
</g>
</g>
<g id="Ultralight-L">
<g id="Vector_21">
<path d="M609.5 1591C608.822 1591 608.37 1590.66 608.144 1589.98C606.337 1583.09 602.892 1577.16 597.808 1572.19C592.838 1567.11 586.907 1563.66 580.017 1561.86C579.339 1561.63 579 1561.18 579 1560.5C579 1559.71 579.339 1559.26 580.017 1559.14C586.907 1557.34 592.838 1553.95 597.808 1548.98C602.892 1543.89 606.337 1537.91 608.144 1531.02C608.37 1530.34 608.822 1530 609.5 1530C610.291 1530 610.743 1530.34 610.856 1531.02C612.776 1537.91 616.221 1543.89 621.192 1548.98C626.162 1553.95 632.093 1557.34 638.983 1559.14C639.661 1559.26 640 1559.71 640 1560.5C640 1561.18 639.661 1561.63 638.983 1561.86C632.093 1563.66 626.106 1567.11 621.022 1572.19C616.052 1577.16 612.663 1583.09 610.856 1589.98C610.743 1590.66 610.291 1591 609.5 1591Z" fill="black"/>
<path fill-rule="evenodd" clip-rule="evenodd" d="M559.713 1461.56C570.598 1461.56 579.443 1469.66 580.577 1480.31H596.246C606.606 1480.31 612.168 1486.05 612.168 1496.25V1525.53C611.365 1525.18 610.579 1525.05 609.915 1525.01L609.589 1525V1496.38C609.589 1487.47 604.682 1482.89 596.086 1482.89H523.337C514.405 1482.89 509.834 1487.47 509.834 1496.38V1563.73C509.834 1572.65 514.405 1577.23 523.337 1577.23H595.726C596.467 1578.04 597.161 1578.88 597.809 1579.75C597.234 1579.79 596.644 1579.81 596.036 1579.81H523.176C512.816 1579.81 507.254 1574.24 507.254 1563.87V1496.25C507.254 1485.88 512.816 1480.31 523.176 1480.31H538.849C539.982 1469.67 548.824 1461.57 559.713 1461.56ZM559.713 1464.18C550.189 1464.18 542.552 1471.14 541.44 1480.31H577.98C576.858 1471.14 569.155 1464.18 559.713 1464.18Z" fill="black"/>
<path d="M609.589 1530C610.325 1530.03 610.747 1530.36 610.856 1531.02C611.234 1532.37 611.672 1533.69 612.168 1534.98V1563.87C612.168 1571.45 609.091 1576.57 603.172 1578.69C602.667 1577.92 602.132 1577.17 601.567 1576.43C606.768 1574.76 609.589 1570.49 609.589 1563.73V1530Z" fill="black"/>
</g>
</g>
<g id="Black-M">
<g id="Vector_22">
<path d="M2973 1148C2972.4 1148 2972 1147.7 2971.8 1147.1C2970.2 1141 2967.15 1135.75 2962.65 1131.35C2958.25 1126.85 2953 1123.8 2946.9 1122.2C2946.3 1122 2946 1121.6 2946 1121C2946 1120.3 2946.3 1119.9 2946.9 1119.8C2953 1118.2 2958.25 1115.2 2962.65 1110.8C2967.15 1106.3 2970.2 1101 2971.8 1094.9C2972 1094.3 2972.4 1094 2973 1094C2973.7 1094 2974.1 1094.3 2974.2 1094.9C2975.9 1101 2978.95 1106.3 2983.35 1110.8C2987.75 1115.2 2993 1118.2 2999.1 1119.8C2999.7 1119.9 3000 1120.3 3000 1121C3000 1121.6 2999.7 1122 2999.1 1122.2C2993 1123.8 2987.7 1126.85 2983.2 1131.35C2978.8 1135.75 2975.8 1141 2974.2 1147.1C2974.1 1147.7 2973.7 1148 2973 1148Z" fill="black"/>
<path fill-rule="evenodd" clip-rule="evenodd" d="M2933.4 1036.15C2946.82 1036.15 2956.56 1044.59 2957.87 1056.85H2961.94C2974.03 1056.85 2981.1 1063.91 2981.1 1075.99V1087.35C2980.72 1086.95 2980.3 1086.58 2979.83 1086.22C2977.48 1084.46 2975 1084.05 2973.32 1084L2973 1084C2970.98 1084 2968.51 1084.53 2966.25 1086.22C2965.2 1087.01 2964.39 1087.91 2963.76 1088.82V1078.66C2963.76 1075.42 2962.29 1074.19 2959.3 1074.19H2907.5C2904.5 1074.19 2903.04 1075.42 2903.04 1078.66V1123.53C2903.04 1126.77 2904.5 1127.99 2907.5 1127.99H2938.41C2940.04 1130.04 2942.08 1131.14 2943.74 1131.69L2944.05 1131.79L2944.36 1131.87C2948.71 1133.01 2952.37 1135.14 2955.5 1138.34L2955.58 1138.42L2955.66 1138.5C2957.74 1140.54 2959.37 1142.8 2960.57 1145.33H2904.86C2892.77 1145.33 2885.7 1138.27 2885.7 1126.19V1075.99C2885.7 1063.91 2892.77 1056.85 2904.86 1056.85H2908.92C2910.23 1044.59 2919.98 1036.15 2933.4 1036.15ZM2933.4 1049.68C2929.04 1049.68 2925.76 1052.5 2924.74 1056.85H2942.06C2941.04 1052.5 2937.76 1049.68 2933.4 1049.68Z" fill="black"/>
<path d="M2973 1094C2973.7 1094 2974.1 1094.3 2974.2 1094.9C2975.59 1099.9 2977.89 1104.36 2981.1 1108.28V1126.19C2981.1 1134.96 2977.37 1141.09 2970.76 1143.79C2969.02 1139.08 2966.31 1134.93 2962.65 1131.35C2961.45 1130.12 2960.19 1129 2958.86 1127.99H2959.46C2962.29 1127.99 2963.76 1126.77 2963.76 1123.53V1109.64C2967.52 1105.54 2970.15 1100.82 2971.65 1095.47L2971.8 1094.9C2972 1094.3 2972.4 1094 2973 1094Z" fill="black"/>
</g>
</g>
<g id="Heavy-M">
<g id="Vector_23">
<path d="M2677 1148C2676.4 1148 2676 1147.7 2675.8 1147.1C2674.2 1141 2671.15 1135.75 2666.65 1131.35C2662.25 1126.85 2657 1123.8 2650.9 1122.2C2650.3 1122 2650 1121.6 2650 1121C2650 1120.3 2650.3 1119.9 2650.9 1119.8C2657 1118.2 2662.25 1115.2 2666.65 1110.8C2671.15 1106.3 2674.2 1101 2675.8 1094.9C2676 1094.3 2676.4 1094 2677 1094C2677.7 1094 2678.1 1094.3 2678.2 1094.9C2679.9 1101 2682.95 1106.3 2687.35 1110.8C2691.75 1115.2 2697 1118.2 2703.1 1119.8C2703.7 1119.9 2704 1120.3 2704 1121C2704 1121.6 2703.7 1122 2703.1 1122.2C2697 1123.8 2691.7 1126.85 2687.2 1131.35C2682.8 1135.75 2679.8 1141 2678.2 1147.1C2678.1 1147.7 2677.7 1148 2677 1148Z" fill="black"/>
<path fill-rule="evenodd" clip-rule="evenodd" d="M2636.68 1037.45C2649.36 1037.45 2658.68 1045.67 2659.9 1057.37H2665.1C2676.74 1057.37 2683.35 1063.97 2683.35 1075.57V1085.89C2681.15 1084.41 2678.89 1084.05 2677.32 1084L2677 1084C2674.98 1084 2672.51 1084.53 2670.25 1086.22C2669.45 1086.82 2668.8 1087.48 2668.25 1088.16V1077.69C2668.25 1074.03 2666.47 1072.48 2663.06 1072.48H2610.32C2606.88 1072.48 2605.12 1074.03 2605.12 1077.69V1123.72C2605.12 1127.39 2606.88 1128.93 2610.32 1128.93H2643.25C2644.7 1130.39 2646.36 1131.23 2647.74 1131.69L2648.05 1131.79L2648.36 1131.87C2652.71 1133.01 2656.37 1135.14 2659.5 1138.34L2659.58 1138.42L2659.66 1138.5C2661.38 1140.19 2662.79 1142.03 2663.91 1144.05H2608.27C2596.64 1144.05 2590.02 1137.45 2590.02 1125.84V1075.57C2590.02 1063.96 2596.64 1057.37 2608.27 1057.37H2613.46C2614.68 1045.67 2624.01 1037.45 2636.68 1037.45ZM2636.68 1049.54C2631.91 1049.54 2628.38 1052.64 2627.4 1057.37H2645.97C2645 1052.64 2641.46 1049.54 2636.68 1049.54Z" fill="black"/>
<path d="M2677 1094C2677.7 1094 2678.1 1094.3 2678.2 1094.9C2679.33 1098.94 2681.04 1102.63 2683.35 1105.96V1125.84C2683.35 1134.03 2680.07 1139.73 2674.2 1142.37C2672.46 1138.24 2669.94 1134.57 2666.65 1131.35C2665.8 1130.48 2664.93 1129.67 2664.02 1128.91C2666.67 1128.74 2668.25 1127.18 2668.25 1123.72V1109.09C2671.75 1105.12 2674.22 1100.58 2675.65 1095.47L2675.8 1094.9C2676 1094.3 2676.4 1094 2677 1094Z" fill="black"/>
</g>
</g>
<g id="Bold-M">
<g id="Vector_24">
<path d="M2379 1145C2378.44 1145 2378.07 1144.72 2377.89 1144.17C2376.41 1138.52 2373.58 1133.66 2369.42 1129.58C2365.34 1125.42 2360.48 1122.59 2354.83 1121.11C2354.28 1120.93 2354 1120.56 2354 1120C2354 1119.35 2354.28 1118.98 2354.83 1118.89C2360.48 1117.41 2365.34 1114.63 2369.42 1110.56C2373.58 1106.39 2376.41 1101.48 2377.89 1095.83C2378.07 1095.28 2378.44 1095 2379 1095C2379.65 1095 2380.02 1095.28 2380.11 1095.83C2381.69 1101.48 2384.51 1106.39 2388.58 1110.56C2392.66 1114.63 2397.52 1117.41 2403.17 1118.89C2403.72 1118.98 2404 1119.35 2404 1120C2404 1120.56 2403.72 1120.93 2403.17 1121.11C2397.52 1122.59 2392.61 1125.42 2388.44 1129.58C2384.37 1133.66 2381.59 1138.52 2380.11 1144.17C2380.02 1144.72 2379.65 1145 2379 1145Z" fill="black"/>
<path fill-rule="evenodd" clip-rule="evenodd" d="M2339.97 1038.9C2351.83 1038.9 2360.67 1046.88 2361.78 1057.94H2368.25C2379.39 1057.94 2385.49 1064.03 2385.49 1075.1V1088.26C2385.38 1088.18 2385.28 1088.09 2385.16 1088.01C2383.05 1086.42 2380.81 1086.04 2379.29 1086L2379 1086C2377.18 1086 2374.94 1086.48 2372.91 1088.01C2372.9 1088.01 2372.9 1088.01 2372.89 1088.02V1076.62C2372.89 1072.49 2370.76 1070.57 2366.87 1070.57H2313.09C2309.16 1070.57 2307.07 1072.49 2307.07 1076.62V1123.93C2307.07 1128.09 2309.16 1129.98 2313.09 1129.98H2353.14C2356.96 1131.08 2360.19 1133.02 2362.98 1135.88L2363.05 1135.95L2363.12 1136.02C2365.13 1137.98 2366.68 1140.16 2367.81 1142.61H2311.71C2300.57 1142.61 2294.47 1136.53 2294.47 1125.45V1075.1C2294.47 1064.02 2300.57 1057.94 2311.71 1057.94H2318.15C2319.27 1046.88 2328.13 1038.9 2339.97 1038.9ZM2339.97 1049.38C2334.74 1049.38 2330.93 1052.8 2330.01 1057.94H2349.95C2349.03 1052.8 2345.22 1049.38 2339.97 1049.38Z" fill="black"/>
<path d="M2379 1095C2379.65 1095 2380.02 1095.28 2380.11 1095.83C2381.25 1099.92 2383.04 1103.62 2385.49 1106.93V1125.45C2385.49 1133.32 2382.42 1138.67 2376.92 1141.1C2375.33 1136.79 2372.87 1133 2369.54 1129.71C2371.59 1129.05 2372.89 1127.18 2372.89 1123.93V1106.48C2375.2 1103.28 2376.87 1099.74 2377.89 1095.83C2378.07 1095.28 2378.44 1095 2379 1095Z" fill="black"/>
</g>
</g>
<g id="Semibold-M">
<g id="Vector_25">
<path d="M2082 1144C2081.47 1144 2081.11 1143.73 2080.93 1143.2C2079.51 1137.78 2076.8 1133.11 2072.8 1129.2C2068.89 1125.2 2064.22 1122.49 2058.8 1121.07C2058.27 1120.89 2058 1120.53 2058 1120C2058 1119.38 2058.27 1119.02 2058.8 1118.93C2064.22 1117.51 2068.89 1114.84 2072.8 1110.93C2076.8 1106.93 2079.51 1102.22 2080.93 1096.8C2081.11 1096.27 2081.47 1096 2082 1096C2082.62 1096 2082.98 1096.27 2083.07 1096.8C2084.58 1102.22 2087.29 1106.93 2091.2 1110.93C2095.11 1114.84 2099.78 1117.51 2105.2 1118.93C2105.73 1119.02 2106 1119.38 2106 1120C2106 1120.53 2105.73 1120.89 2105.2 1121.07C2099.78 1122.49 2095.07 1125.2 2091.07 1129.2C2087.16 1133.11 2084.49 1137.78 2083.07 1143.2C2082.98 1143.73 2082.62 1144 2082 1144Z" fill="black"/>
<path fill-rule="evenodd" clip-rule="evenodd" d="M2043.24 1039.9C2054.55 1039.9 2063.05 1047.72 2064.09 1058.34H2071.44C2082.22 1058.34 2087.98 1064.07 2087.98 1074.77V1088.89C2085.91 1087.4 2083.76 1087.04 2082.29 1087L2082 1087C2080.53 1087 2078.79 1087.31 2077.11 1088.24V1075.88C2077.11 1071.42 2074.72 1069.25 2070.51 1069.25H2016.01C2011.74 1069.25 2009.42 1071.42 2009.42 1075.88V1124.08C2009.42 1128.57 2011.74 1130.71 2016.01 1130.71H2059.32C2061.97 1131.79 2064.3 1133.38 2066.37 1135.49L2066.44 1135.56L2066.51 1135.63C2068.33 1137.42 2069.76 1139.4 2070.82 1141.61H2015.09C2004.3 1141.61 1998.55 1135.9 1998.55 1125.19V1074.77C1998.55 1064.06 2004.3 1058.34 2015.09 1058.34H2022.4C2023.44 1047.72 2031.98 1039.9 2043.24 1039.9ZM2043.24 1049.27C2037.69 1049.27 2033.7 1052.91 2032.83 1058.34H2053.69C2052.82 1052.91 2048.82 1049.27 2043.24 1049.27Z" fill="black"/>
<path d="M2082 1096C2082.62 1096 2082.98 1096.27 2083.07 1096.8C2084.12 1100.58 2085.76 1104.01 2087.98 1107.1V1125.19C2087.98 1132.75 2085.11 1137.83 2079.97 1140.16C2078.59 1136.47 2076.55 1133.17 2073.84 1130.27C2075.8 1129.43 2077.11 1127.4 2077.11 1124.08V1105.6C2078.73 1103.05 2079.96 1100.29 2080.8 1097.31L2080.93 1096.8C2081.11 1096.27 2081.47 1096 2082 1096Z" fill="black"/>
</g>
</g>
<g id="Medium-M">
<g id="Vector_26">
<path d="M1785 1144C1784.47 1144 1784.11 1143.73 1783.93 1143.2C1782.51 1137.78 1779.8 1133.11 1775.8 1129.2C1771.89 1125.2 1767.22 1122.49 1761.8 1121.07C1761.27 1120.89 1761 1120.53 1761 1120C1761 1119.38 1761.27 1119.02 1761.8 1118.93C1767.22 1117.51 1771.89 1114.84 1775.8 1110.93C1779.8 1106.93 1782.51 1102.22 1783.93 1096.8C1784.11 1096.27 1784.47 1096 1785 1096C1785.62 1096 1785.98 1096.27 1786.07 1096.8C1787.58 1102.22 1790.29 1106.93 1794.2 1110.93C1798.11 1114.84 1802.78 1117.51 1808.2 1118.93C1808.73 1119.02 1809 1119.38 1809 1120C1809 1120.53 1808.73 1120.89 1808.2 1121.07C1802.78 1122.49 1798.07 1125.2 1794.07 1129.2C1790.16 1133.11 1787.49 1137.78 1786.07 1143.2C1785.98 1143.73 1785.62 1144 1785 1144Z" fill="black"/>
<path fill-rule="evenodd" clip-rule="evenodd" d="M1746.54 1040.65C1757.41 1040.65 1765.67 1048.35 1766.65 1058.64H1774.66C1785.18 1058.64 1790.67 1064.1 1790.67 1074.52V1089.9C1790.62 1089.87 1790.58 1089.83 1790.53 1089.8C1788.64 1088.38 1786.63 1088.04 1785.26 1088L1785 1088C1783.82 1088 1782.46 1088.22 1781.11 1088.86V1075.32C1781.11 1070.61 1778.54 1068.25 1774.08 1068.25H1719.04C1714.5 1068.25 1712.01 1070.61 1712.01 1075.32V1124.19C1712.01 1128.94 1714.5 1131.26 1719.04 1131.26H1765.63C1767.23 1132.22 1768.71 1133.39 1770.08 1134.79L1770.14 1134.86L1770.21 1134.92C1772.03 1136.7 1773.48 1138.67 1774.57 1140.86H1718.46C1707.94 1140.86 1702.45 1135.42 1702.45 1124.98V1074.52C1702.45 1064.09 1707.94 1058.64 1718.46 1058.64H1726.42C1727.41 1048.35 1735.71 1040.65 1746.54 1040.65ZM1746.54 1049.19C1740.74 1049.19 1736.61 1053 1735.78 1058.64H1757.34C1756.51 1053 1752.37 1049.19 1746.54 1049.19Z" fill="black"/>
<path d="M1785 1096C1785.62 1096 1785.98 1096.27 1786.07 1096.8C1787.07 1100.4 1788.6 1103.69 1790.67 1106.66V1124.98C1790.67 1132.49 1787.84 1137.42 1782.75 1139.59C1781.48 1136.39 1779.7 1133.49 1777.4 1130.88C1779.58 1130.06 1781.11 1127.85 1781.11 1124.19V1103.91C1782.25 1101.84 1783.14 1099.64 1783.8 1097.31L1783.93 1096.8C1784.11 1096.27 1784.47 1096 1785 1096Z" fill="black"/>
</g>
</g>
<g id="Regular-M">
<g id="Vector_27">
<path d="M1489 1145C1488.44 1145 1488.07 1144.72 1487.89 1144.17C1486.41 1138.52 1483.58 1133.66 1479.42 1129.58C1475.34 1125.42 1470.48 1122.59 1464.83 1121.11C1464.28 1120.93 1464 1120.56 1464 1120C1464 1119.35 1464.28 1118.98 1464.83 1118.89C1470.48 1117.41 1475.34 1114.63 1479.42 1110.56C1483.58 1106.39 1486.41 1101.48 1487.89 1095.83C1488.07 1095.28 1488.44 1095 1489 1095C1489.65 1095 1490.02 1095.28 1490.11 1095.83C1491.69 1101.48 1494.51 1106.39 1498.58 1110.56C1502.66 1114.63 1507.52 1117.41 1513.17 1118.89C1513.72 1118.98 1514 1119.35 1514 1120C1514 1120.56 1513.72 1120.93 1513.17 1121.11C1507.52 1122.59 1502.61 1125.42 1498.44 1129.58C1494.37 1133.66 1491.59 1138.52 1490.11 1144.17C1490.02 1144.72 1489.65 1145 1489 1145Z" fill="black"/>
<path fill-rule="evenodd" clip-rule="evenodd" d="M1449.82 1041.64C1460.13 1041.64 1468.06 1049.18 1468.97 1059.04H1477.84C1488.02 1059.04 1493.16 1064.14 1493.16 1074.2V1089.08C1491.84 1088.32 1490.52 1088.07 1489.5 1088.01L1489 1088C1487.88 1088 1486.58 1088.22 1485.31 1088.86V1074.58C1485.31 1069.55 1482.5 1066.94 1477.72 1066.94H1421.96C1417.09 1066.94 1414.38 1069.55 1414.38 1074.58V1124.33C1414.38 1129.41 1417.09 1131.97 1421.96 1131.97H1471.57C1472.56 1132.72 1473.51 1133.56 1474.41 1134.48L1474.47 1134.53L1474.52 1134.59C1476.17 1136.2 1477.55 1137.96 1478.65 1139.88H1421.84C1411.66 1139.88 1406.52 1134.79 1406.52 1124.72V1074.2C1406.52 1064.12 1411.66 1059.04 1421.84 1059.04H1430.66C1431.58 1049.18 1439.55 1041.64 1449.82 1041.64ZM1449.82 1049.08C1443.7 1049.08 1439.38 1053.11 1438.6 1059.04H1461.08C1460.3 1053.11 1455.97 1049.08 1449.82 1049.08Z" fill="black"/>
<path d="M1489 1095C1489.65 1095 1490.02 1095.28 1490.11 1095.83C1490.85 1098.49 1491.87 1100.98 1493.16 1103.31V1124.72C1493.16 1131.89 1490.57 1136.55 1485.89 1138.63C1484.69 1136.08 1483.16 1133.74 1481.3 1131.58C1483.62 1130.69 1485.31 1128.27 1485.31 1124.33V1102.56C1486.41 1100.45 1487.27 1098.21 1487.89 1095.83C1488.07 1095.28 1488.44 1095 1489 1095Z" fill="black"/>
</g>
</g>
<g id="Light-M">
<g id="Vector_28">
<path d="M1192 1143C1191.49 1143 1191.15 1142.74 1190.98 1142.23C1189.61 1137.04 1187.02 1132.56 1183.18 1128.82C1179.44 1124.98 1174.96 1122.38 1169.77 1121.02C1169.26 1120.85 1169 1120.51 1169 1120C1169 1119.4 1169.26 1119.06 1169.77 1118.98C1174.96 1117.61 1179.44 1115.06 1183.18 1111.31C1187.02 1107.48 1189.61 1102.96 1190.98 1097.77C1191.15 1097.26 1191.49 1097 1192 1097C1192.6 1097 1192.94 1097.26 1193.02 1097.77C1194.47 1102.96 1197.07 1107.48 1200.82 1111.31C1204.56 1115.06 1209.04 1117.61 1214.23 1118.98C1214.74 1119.06 1215 1119.4 1215 1120C1215 1120.51 1214.74 1120.85 1214.23 1121.02C1209.04 1122.38 1204.52 1124.98 1200.69 1128.82C1196.94 1132.56 1194.39 1137.04 1193.02 1142.23C1192.94 1142.74 1192.6 1143 1192 1143Z" fill="black"/>
<path fill-rule="evenodd" clip-rule="evenodd" d="M1153.11 1042.65C1162.84 1042.65 1170.44 1049.8 1171.34 1059.16H1181.23C1190.74 1059.16 1195.62 1064.06 1195.62 1073.45V1090.81C1194.48 1090.26 1193.37 1090.06 1192.49 1090.01L1192 1090C1191.25 1090 1190.43 1090.1 1189.58 1090.36V1073.75C1189.58 1068.13 1186.47 1065.23 1181.1 1065.23H1125.16C1119.65 1065.23 1116.68 1068.13 1116.68 1073.75V1124.25C1116.68 1129.89 1119.65 1132.76 1125.16 1132.76H1177.19C1177.53 1133.06 1177.86 1133.38 1178.18 1133.71L1178.23 1133.77L1178.29 1133.82C1179.85 1135.34 1181.13 1137.01 1182.14 1138.83H1125.03C1115.52 1138.83 1110.64 1133.99 1110.64 1124.54V1073.45C1110.64 1064 1115.52 1059.16 1125.03 1059.16H1134.88C1135.79 1049.8 1143.42 1042.65 1153.11 1042.65ZM1153.11 1048.42C1146.6 1048.42 1141.8 1052.86 1140.99 1059.16H1165.27C1164.46 1052.86 1159.63 1048.42 1153.11 1048.42Z" fill="black"/>
<path d="M1192 1097C1192.6 1097 1192.94 1097.26 1193.02 1097.77C1193.66 1100.06 1194.53 1102.23 1195.62 1104.26V1124.54C1195.62 1130.93 1193.38 1135.24 1189.23 1137.34C1188.33 1135.39 1187.22 1133.55 1185.89 1131.84C1188.16 1130.59 1189.58 1128.05 1189.58 1124.25V1101.88C1190.14 1100.56 1190.6 1099.19 1190.98 1097.77C1191.15 1097.26 1191.49 1097 1192 1097Z" fill="black"/>
</g>
</g>
<g id="Thin-M">
<g id="Vector_29">
<path d="M895.001 1141C894.49 1141 894.149 1140.74 893.979 1140.23C892.616 1135.04 890.018 1130.56 886.184 1126.82C882.436 1122.98 877.964 1120.38 872.768 1119.02C872.257 1118.85 872.001 1118.51 872.001 1118C872.001 1117.4 872.257 1117.06 872.768 1116.98C877.964 1115.61 882.436 1113.06 886.184 1109.31C890.018 1105.48 892.616 1100.96 893.979 1095.77C894.149 1095.26 894.49 1095 895.001 1095C895.597 1095 895.938 1095.26 896.023 1095.77C897.471 1100.96 900.069 1105.48 903.818 1109.31C907.566 1113.06 912.038 1115.61 917.234 1116.98C917.745 1117.06 918.001 1117.4 918.001 1118C918.001 1118.51 917.745 1118.85 917.234 1119.02C912.038 1120.38 907.523 1122.98 903.69 1126.82C899.942 1130.56 897.386 1135.04 896.023 1140.23C895.938 1140.74 895.597 1141 895.001 1141Z" fill="black"/>
<path fill-rule="evenodd" clip-rule="evenodd" d="M856.416 1043.99C865.376 1043.99 872.532 1050.62 873.42 1059.32H884.643C893.273 1059.32 897.814 1063.95 897.814 1072.45V1089.54C896.949 1089.19 896.116 1089.05 895.435 1089.01L895.001 1089C894.735 1089 894.458 1089.01 894.174 1089.05V1072.64C894.174 1066.25 890.652 1062.97 884.519 1062.97H828.327C821.98 1062.97 818.671 1066.25 818.671 1072.64V1124.13C818.671 1130.53 821.98 1133.8 828.327 1133.8H884.359C885.209 1134.93 885.944 1136.12 886.562 1137.39C886.035 1137.43 885.491 1137.45 884.929 1137.45H828.202C819.572 1137.45 815.03 1132.92 815.03 1124.32V1072.45C815.03 1063.85 819.572 1059.32 828.202 1059.32H839.413C840.302 1050.62 847.467 1043.99 856.416 1043.99ZM856.416 1047.53C849.391 1047.53 843.929 1052.54 843.086 1059.32H869.758C868.908 1052.54 863.406 1047.53 856.416 1047.53Z" fill="black"/>
<path d="M895.001 1095C895.597 1095 895.938 1095.26 896.023 1095.77C896.497 1097.47 897.095 1099.09 897.814 1100.64V1124.32C897.814 1129.78 895.947 1133.64 892.397 1135.71C891.868 1134.52 891.262 1133.37 890.578 1132.27C892.886 1130.72 894.174 1128 894.174 1124.13V1095.39C894.365 1095.13 894.639 1095 895.001 1095Z" fill="black"/>
</g>
</g>
<g id="Ultralight-M">
<g id="Vector_30">
<path d="M597 1142C596.511 1142 596.185 1141.76 596.022 1141.27C594.719 1136.3 592.233 1132.02 588.567 1128.43C584.981 1124.77 580.704 1122.28 575.733 1120.98C575.244 1120.81 575 1120.49 575 1120C575 1119.43 575.244 1119.1 575.733 1119.02C580.704 1117.72 584.981 1115.27 588.567 1111.69C592.233 1108.02 594.719 1103.7 596.022 1098.73C596.185 1098.24 596.511 1098 597 1098C597.57 1098 597.896 1098.24 597.978 1098.73C599.363 1103.7 601.848 1108.02 605.433 1111.69C609.019 1115.27 613.296 1117.72 618.267 1119.02C618.756 1119.1 619 1119.43 619 1120C619 1120.49 618.756 1120.81 618.267 1120.98C613.296 1122.28 608.978 1124.77 605.311 1128.43C601.726 1132.02 599.281 1136.3 597.978 1141.27C597.896 1141.76 597.57 1142 597 1142Z" fill="black"/>
<path fill-rule="evenodd" clip-rule="evenodd" d="M559.711 1044.67C568.277 1044.67 575.205 1051.04 576.086 1059.4H587.995C596.173 1059.4 600.541 1063.89 600.541 1071.94V1094.09C599.722 1093.51 598.874 1093.23 598.129 1093.1V1072.07C598.129 1065.29 594.398 1061.81 587.87 1061.81H531.552C524.776 1061.81 521.293 1065.29 521.293 1072.07V1124.07C521.293 1130.85 524.776 1134.33 531.552 1134.33H587.157C587.757 1135.1 588.299 1135.9 588.788 1136.73C588.512 1136.74 588.23 1136.75 587.944 1136.75H531.427C523.249 1136.75 518.881 1132.38 518.881 1124.2V1071.94C518.881 1063.76 523.249 1059.4 531.427 1059.4H543.335C544.216 1051.04 551.145 1044.67 559.711 1044.67ZM559.711 1047.08C552.421 1047.08 546.619 1052.37 545.762 1059.4H573.659C572.794 1052.37 566.944 1047.08 559.711 1047.08Z" fill="black"/>
<path d="M598.129 1099.25C598.741 1101.31 599.544 1103.25 600.541 1105.09V1124.2C600.541 1130 598.274 1133.96 593.93 1135.71C593.548 1134.96 593.132 1134.22 592.682 1133.51C596.204 1132.11 598.129 1128.94 598.129 1124.07V1099.25Z" fill="black"/>
</g>
</g>
<g id="Black-S">
<g id="Union">
<path d="M2965 664C2965.06 664 2965.13 664.004 2965.18 664.011C2965.59 664.059 2965.82 664.278 2965.89 664.667C2966.28 666.065 2966.76 667.405 2967.34 668.689C2967.38 668.776 2967.43 668.862 2967.47 668.948C2967.83 669.741 2968.24 670.511 2968.68 671.26C2969 671.803 2969.34 672.336 2969.71 672.856C2970.58 674.12 2971.56 675.317 2972.67 676.444C2975.93 679.703 2979.81 681.926 2984.33 683.111C2984.78 683.185 2985 683.481 2985 684C2985 684.444 2984.78 684.741 2984.33 684.889C2979.81 686.074 2975.89 688.334 2972.56 691.667C2971.73 692.497 2970.96 693.369 2970.27 694.281V694.283C2969.5 695.283 2968.82 696.333 2968.22 697.432C2967.22 699.263 2966.44 701.229 2965.89 703.333C2965.81 703.777 2965.52 704 2965 704C2964.56 704 2964.26 703.777 2964.11 703.333C2964.01 702.938 2963.89 702.549 2963.77 702.163C2963.23 700.432 2962.53 698.799 2961.66 697.262C2960.51 695.227 2959.07 693.361 2957.33 691.667C2957.14 691.472 2956.95 691.281 2956.75 691.094C2956.18 690.544 2955.59 690.026 2954.98 689.538C2952.25 687.353 2949.15 685.801 2945.67 684.889C2945.22 684.741 2945 684.444 2945 684C2945 683.481 2945.22 683.185 2945.67 683.111C2949.98 681.979 2953.72 679.898 2956.89 676.874C2957.04 676.732 2957.19 676.59 2957.33 676.444C2958.55 675.229 2959.62 673.934 2960.55 672.562C2960.83 672.142 2961.1 671.715 2961.36 671.28C2961.65 670.784 2961.93 670.279 2962.19 669.764C2962.54 669.057 2962.87 668.333 2963.16 667.591C2963.17 667.57 2963.17 667.55 2963.18 667.529C2963.47 666.773 2963.73 665.998 2963.96 665.204L2964.11 664.667C2964.13 664.611 2964.15 664.559 2964.17 664.511C2964.2 664.462 2964.22 664.417 2964.25 664.375C2964.28 664.333 2964.31 664.295 2964.34 664.261C2964.5 664.087 2964.72 664 2965 664Z" fill="black"/>
<path fill-rule="evenodd" clip-rule="evenodd" d="M2933.4 617.631C2944.11 617.631 2951.86 624.286 2952.91 634.037H2955.81C2965.38 634.037 2971.05 639.701 2971.05 649.271V655.774C2968.93 654.383 2966.77 654.043 2965.31 654.004L2965 654C2963.06 654 2960.65 654.514 2958.44 656.167C2957.85 656.613 2957.34 657.096 2956.89 657.594V651.518C2956.89 649.076 2955.81 648.197 2953.57 648.197H2913.24C2910.99 648.197 2909.92 649.076 2909.92 651.518V686.381C2909.92 688.822 2910.99 689.701 2913.24 689.701H2936.59C2936.76 689.988 2936.96 690.274 2937.17 690.556C2938.79 692.715 2940.87 693.829 2942.5 694.376L2942.81 694.479L2943.13 694.562C2945.9 695.288 2948.19 696.623 2950.18 698.658L2950.26 698.738L2950.34 698.816C2951.86 700.304 2952.99 701.962 2953.77 703.861H2910.99C2901.42 703.861 2895.76 698.197 2895.76 688.627V649.271C2895.76 639.701 2901.42 634.037 2910.99 634.037H2913.9C2914.95 624.286 2922.7 617.631 2933.4 617.631ZM2933.4 628.568C2930.09 628.568 2927.56 630.72 2926.75 634.037H2940.06C2939.24 630.72 2936.71 628.568 2933.4 628.568Z" fill="black"/>
</g>
</g>
<g id="Heavy-S">
<g id="Union_2">
<path d="M2668 664C2668.06 664 2668.13 664.004 2668.18 664.011C2668.59 664.059 2668.82 664.278 2668.89 664.667C2669.33 666.261 2669.91 667.781 2670.6 669.228C2670.82 669.692 2671.06 670.149 2671.3 670.599C2671.45 670.855 2671.59 671.109 2671.74 671.36C2672.29 672.278 2672.89 673.163 2673.55 674.016C2674.2 674.857 2674.91 675.668 2675.67 676.444C2678.93 679.703 2682.81 681.926 2687.33 683.111C2687.78 683.185 2688 683.481 2688 684C2688 684.444 2687.78 684.741 2687.33 684.889C2682.81 686.074 2678.89 688.334 2675.56 691.667C2672.3 694.926 2670.07 698.815 2668.89 703.333C2668.81 703.777 2668.52 704 2668 704C2667.56 704 2667.26 703.777 2667.11 703.333C2666.94 702.677 2666.74 702.035 2666.52 701.405C2666.13 700.261 2665.66 699.163 2665.11 698.106C2664.86 697.614 2664.59 697.132 2664.3 696.659C2663.87 695.938 2663.39 695.239 2662.88 694.562C2662.12 693.548 2661.27 692.582 2660.33 691.667C2660.05 691.374 2659.75 691.092 2659.46 690.815C2659.25 690.623 2659.04 690.435 2658.83 690.25C2655.9 687.687 2652.51 685.897 2648.67 684.889C2648.22 684.741 2648 684.444 2648 684C2648 683.481 2648.22 683.185 2648.67 683.111C2653.19 681.926 2657.07 679.703 2660.33 676.444C2660.59 676.19 2660.83 675.93 2661.08 675.668C2663.88 672.642 2665.84 669.155 2666.96 665.204L2667.11 664.667C2667.13 664.611 2667.15 664.559 2667.17 664.511C2667.2 664.462 2667.22 664.417 2667.25 664.375C2667.28 664.333 2667.31 664.295 2667.34 664.261C2667.5 664.087 2667.72 664 2668 664Z" fill="black"/>
<path fill-rule="evenodd" clip-rule="evenodd" d="M2636.68 618.61C2646.83 618.61 2654.26 625.132 2655.23 634.464H2658.98C2668.25 634.464 2673.55 639.759 2673.55 649.007V655.47C2671.6 654.333 2669.66 654.04 2668.31 654.004L2668 654C2666.06 654 2663.65 654.514 2661.44 656.167C2661.32 656.262 2661.2 656.358 2661.08 656.456V650.803C2661.08 648.073 2659.77 646.952 2657.24 646.952H2616.13C2613.59 646.952 2612.29 648.073 2612.29 650.803V686.554C2612.29 689.295 2613.59 690.404 2616.13 690.404H2640.06C2640.09 690.454 2640.13 690.506 2640.17 690.556C2641.79 692.715 2643.87 693.829 2645.5 694.376L2645.81 694.479L2646.13 694.562C2648.9 695.288 2651.19 696.623 2653.18 698.658L2653.26 698.738L2653.34 698.816C2654.6 700.046 2655.59 701.392 2656.33 702.894H2614.39C2605.12 702.893 2599.82 697.598 2599.82 688.351V649.007C2599.82 639.759 2605.12 634.464 2614.39 634.464H2618.13C2619.1 625.132 2626.54 618.611 2636.68 618.61ZM2636.68 628.534C2633.07 628.534 2630.39 630.876 2629.62 634.464H2643.75C2642.98 630.875 2640.3 628.534 2636.68 628.534Z" fill="black"/>
</g>
</g>
<g id="Bold-S">
<g id="Union_3">
<path d="M2370 662C2370.13 662 2370.25 662.014 2370.35 662.042C2370.45 662.07 2370.54 662.111 2370.61 662.167C2370.65 662.195 2370.68 662.226 2370.71 662.261C2370.8 662.365 2370.86 662.5 2370.89 662.667C2370.96 662.933 2371.04 663.196 2371.12 663.458C2372.17 666.827 2373.78 669.856 2375.97 672.545C2376.51 673.198 2377.07 673.832 2377.67 674.444C2380.93 677.703 2384.82 679.926 2389.33 681.111C2389.78 681.185 2390 681.481 2390 682C2390 682.444 2389.78 682.741 2389.33 682.889C2384.82 684.074 2380.89 686.334 2377.56 689.667C2376.83 690.39 2376.16 691.146 2375.54 691.932C2373.87 694.049 2372.56 696.391 2371.63 698.959C2371.35 699.73 2371.1 700.521 2370.89 701.333C2370.82 701.777 2370.52 702 2370 702C2369.56 702 2369.26 701.777 2369.11 701.333C2369.05 701.102 2368.99 700.873 2368.92 700.645C2367.84 696.923 2366.01 693.643 2363.42 690.801L2363.43 690.8C2363.08 690.414 2362.71 690.036 2362.33 689.667C2359.08 686.334 2355.19 684.074 2350.67 682.889C2350.22 682.741 2350 682.444 2350 682C2350 681.481 2350.22 681.185 2350.67 681.111C2355.19 679.926 2359.08 677.703 2362.33 674.444C2363.48 673.303 2364.49 672.09 2365.38 670.81C2366.98 668.5 2368.18 665.966 2368.96 663.204L2369.11 662.667C2369.19 662.445 2369.3 662.278 2369.45 662.167C2369.52 662.111 2369.6 662.07 2369.7 662.042C2369.79 662.014 2369.89 662 2370 662Z" fill="black"/>
<path fill-rule="evenodd" clip-rule="evenodd" d="M2339.96 619.706C2349.5 619.706 2356.56 626.079 2357.45 634.94H2362.13C2371.07 634.94 2375.97 639.823 2375.97 648.71V654.938C2373.9 653.402 2371.73 653.043 2370.28 653.004L2370 653C2368.62 653 2366.98 653.287 2365.38 654.128V650.004C2365.38 646.952 2363.82 645.561 2360.96 645.561H2318.99C2316.11 645.561 2314.57 646.952 2314.57 650.004V686.747C2314.57 689.823 2316.11 691.19 2318.99 691.19H2347.19C2347.4 691.279 2347.62 691.358 2347.82 691.427L2348.1 691.52L2348.38 691.595C2351.33 692.367 2353.78 693.794 2355.9 695.959L2355.97 696.031L2356.04 696.102C2357.75 697.77 2358.99 699.648 2359.83 701.811H2317.82C2308.88 701.811 2303.98 696.928 2303.98 688.041V648.71C2303.98 639.823 2308.88 634.94 2317.82 634.94H2322.48C2323.37 626.079 2330.45 619.706 2339.96 619.706ZM2339.96 628.495C2336.01 628.495 2333.16 631.049 2332.45 634.94H2347.5C2346.79 631.049 2343.94 628.495 2339.96 628.495Z" fill="black"/>
</g>
</g>
<g id="Semibold-S">
<g id="Union_4">
<path d="M2074 662C2074.13 662 2074.25 662.014 2074.35 662.042C2074.45 662.069 2074.54 662.111 2074.61 662.167C2074.65 662.194 2074.68 662.226 2074.71 662.26C2074.8 662.364 2074.86 662.5 2074.89 662.667C2074.96 662.921 2075.03 663.173 2075.11 663.423C2075.13 663.476 2075.14 663.528 2075.16 663.581C2075.32 664.083 2075.49 664.578 2075.67 665.065C2076.45 667.109 2077.44 669.019 2078.66 670.795C2079.55 672.081 2080.55 673.299 2081.67 674.445C2084.93 677.704 2088.81 679.926 2093.33 681.111C2093.78 681.185 2094 681.482 2094 682C2094 682.445 2093.78 682.741 2093.33 682.889C2088.81 684.074 2084.89 686.333 2081.56 689.667C2078.3 692.926 2076.07 696.815 2074.89 701.333C2074.81 701.778 2074.52 702 2074 702C2073.56 702 2073.26 701.778 2073.11 701.333C2072.97 700.784 2072.81 700.245 2072.63 699.714C2071.56 696.486 2069.9 693.603 2067.66 691.063C2067.24 690.586 2066.8 690.119 2066.33 689.667C2063.07 686.333 2059.19 684.074 2054.67 682.889C2054.22 682.741 2054 682.445 2054 682C2054 681.482 2054.22 681.185 2054.67 681.111C2059.19 679.926 2063.07 677.704 2066.33 674.445C2067.47 673.309 2068.48 672.101 2069.36 670.828C2070.97 668.513 2072.17 665.973 2072.96 663.205L2073.11 662.667C2073.13 662.612 2073.15 662.559 2073.17 662.51C2073.22 662.413 2073.28 662.33 2073.34 662.26C2073.37 662.226 2073.41 662.194 2073.44 662.167C2073.52 662.111 2073.6 662.069 2073.69 662.042C2073.79 662.014 2073.89 662 2074 662Z" fill="black"/>
<path fill-rule="evenodd" clip-rule="evenodd" d="M2043.25 620.461C2052.36 620.461 2059.17 626.733 2059.99 635.269H2065.33C2074.03 635.269 2078.66 639.868 2078.66 648.505V654.121C2077.02 653.267 2075.43 653.035 2074.28 653.004L2074 653C2072.61 653 2070.97 653.289 2069.36 654.134V649.453C2069.36 646.179 2067.62 644.601 2064.55 644.601H2021.98C2018.87 644.601 2017.16 646.179 2017.16 649.453V686.88C2017.16 690.188 2018.87 691.733 2021.98 691.733H2052.88C2055.6 692.532 2057.9 693.917 2059.9 695.959L2059.97 696.032L2060.04 696.102C2061.55 697.576 2062.7 699.212 2063.52 701.064H2021.2C2012.5 701.064 2007.87 696.465 2007.87 687.828V648.505C2007.87 639.868 2012.5 635.269 2021.2 635.269H2026.5C2027.33 626.733 2034.17 620.462 2043.25 620.461ZM2043.25 628.468C2039.06 628.468 2036.1 631.17 2035.43 635.269H2051.1C2050.43 631.17 2047.47 628.468 2043.25 628.468Z" fill="black"/>
</g>
</g>
<g id="Medium-S">
<g id="Union_5">
<path d="M1777 663C1777.13 663 1777.25 663.014 1777.35 663.042C1777.45 663.07 1777.54 663.111 1777.61 663.167C1777.65 663.195 1777.68 663.226 1777.71 663.261C1777.8 663.365 1777.86 663.5 1777.89 663.667C1777.96 663.913 1778.03 664.158 1778.1 664.4C1778.12 664.462 1778.14 664.523 1778.16 664.584C1778.32 665.09 1778.49 665.589 1778.68 666.08C1779.42 668.029 1780.36 669.856 1781.5 671.562C1782.43 672.934 1783.48 674.229 1784.67 675.444C1787.93 678.703 1791.81 680.926 1796.33 682.111C1796.78 682.185 1797 682.481 1797 683C1797 683.444 1796.78 683.741 1796.33 683.889C1791.81 685.074 1787.89 687.334 1784.56 690.667C1781.3 693.926 1779.07 697.815 1777.89 702.333C1777.81 702.777 1777.52 703 1777 703C1776.56 703 1776.26 702.777 1776.11 702.333C1775.85 701.335 1775.53 700.37 1775.17 699.434C1774.08 696.653 1772.53 694.143 1770.52 691.904L1770.52 691.903C1770.14 691.481 1769.74 691.07 1769.33 690.667C1766.07 687.334 1762.19 685.074 1757.67 683.889C1757.22 683.741 1757 683.444 1757 683C1757 682.481 1757.22 682.185 1757.67 682.111C1762.19 680.926 1766.07 678.703 1769.33 675.444C1770.84 673.94 1772.12 672.313 1773.19 670.567V670.561C1774.39 668.594 1775.31 666.476 1775.96 664.204L1776.11 663.667C1776.19 663.445 1776.3 663.278 1776.44 663.167C1776.52 663.111 1776.6 663.07 1776.69 663.042C1776.79 663.014 1776.89 663 1777 663Z" fill="black"/>
<path fill-rule="evenodd" clip-rule="evenodd" d="M1746.54 621.034C1755.32 621.034 1761.95 627.23 1762.73 635.519H1768.55C1777.08 635.519 1781.5 639.901 1781.5 648.351V655.038C1779.92 654.251 1778.39 654.034 1777.28 654.004L1777 654C1775.85 654 1774.52 654.199 1773.19 654.749V649.035C1773.19 645.593 1771.31 643.873 1768.07 643.873H1725.05C1721.76 643.873 1719.93 645.593 1719.93 649.035V686.981C1719.93 690.464 1721.76 692.144 1725.05 692.144H1754.07C1754.33 692.252 1754.58 692.347 1754.82 692.427L1755.1 692.52L1755.38 692.595C1758.33 693.367 1760.78 694.794 1762.9 696.959L1762.97 697.031L1763.04 697.102C1764.11 698.146 1765 699.272 1765.71 700.498H1724.57C1716.04 700.498 1711.62 696.115 1711.62 687.666V648.351C1711.62 639.901 1716.04 635.519 1724.57 635.519H1730.35C1731.14 627.23 1737.79 621.034 1746.54 621.034ZM1746.54 628.448C1742.17 628.448 1739.13 631.261 1738.49 635.519H1754.63C1753.99 631.261 1750.95 628.448 1746.54 628.448Z" fill="black"/>
</g>
</g>
<g id="Regular-S">
<g id="Union_6">
<path d="M1480 664C1480.13 664 1480.25 664.014 1480.35 664.042C1480.45 664.07 1480.54 664.111 1480.61 664.167C1480.65 664.195 1480.68 664.226 1480.71 664.261C1480.8 664.365 1480.86 664.5 1480.89 664.667C1480.96 664.933 1481.04 665.198 1481.12 665.46C1481.22 665.768 1481.32 666.073 1481.42 666.375C1481.59 666.842 1481.76 667.302 1481.95 667.755C1482.57 669.277 1483.32 670.723 1484.2 672.093C1485.19 673.64 1486.35 675.092 1487.67 676.444C1490.93 679.703 1494.82 681.926 1499.33 683.111C1499.78 683.185 1500 683.481 1500 684C1500 684.444 1499.78 684.741 1499.33 684.889C1494.82 686.074 1490.89 688.334 1487.56 691.667C1484.3 694.926 1482.07 698.815 1480.89 703.333C1480.82 703.777 1480.52 704 1480 704C1479.56 704 1479.26 703.777 1479.11 703.333C1478.72 701.84 1478.21 700.418 1477.58 699.062C1476.5 696.726 1475.08 694.594 1473.3 692.666L1473.3 692.665C1472.99 692.327 1472.67 691.993 1472.33 691.667C1469.07 688.334 1465.19 686.074 1460.67 684.889C1460.22 684.741 1460 684.444 1460 684C1460 683.481 1460.22 683.185 1460.67 683.111C1465.19 681.926 1469.07 679.703 1472.33 676.444C1474.34 674.438 1475.95 672.216 1477.18 669.781C1477.91 668.331 1478.51 666.806 1478.96 665.204L1479.11 664.667C1479.19 664.445 1479.3 664.278 1479.45 664.167C1479.52 664.111 1479.6 664.07 1479.7 664.042C1479.79 664.014 1479.89 664 1480 664Z" fill="black"/>
<path fill-rule="evenodd" clip-rule="evenodd" d="M1449.82 621.781C1458.19 621.781 1464.56 627.88 1465.28 635.844H1471.75C1480.05 635.844 1484.2 639.945 1484.2 648.148V657.004C1482.85 656.305 1481.54 656.071 1480.53 656.015L1480 656C1479.14 656 1478.16 656.125 1477.17 656.452V648.49C1477.17 644.828 1475.12 642.924 1471.65 642.924H1428.04C1424.53 642.924 1422.53 644.828 1422.53 648.49V687.113C1422.53 690.824 1424.53 692.68 1428.04 692.68H1458.83C1461.86 693.509 1464.42 695.011 1466.61 697.26L1466.68 697.324L1466.74 697.387C1467.51 698.135 1468.18 698.925 1468.78 699.76H1427.95C1419.65 699.76 1415.5 695.658 1415.5 687.455V648.148C1415.5 639.945 1419.65 635.844 1427.95 635.844H1434.36C1435.09 627.88 1441.5 621.781 1449.82 621.781ZM1449.82 628.422C1445.21 628.422 1442.07 631.381 1441.48 635.844H1458.22C1457.63 631.381 1454.47 628.422 1449.82 628.422Z" fill="black"/>
</g>
</g>
<g id="Light-S">
<g id="Union_7">
<path d="M1184 665C1184.13 665 1184.25 665.014 1184.35 665.042C1184.45 665.069 1184.54 665.111 1184.61 665.167C1184.65 665.194 1184.68 665.226 1184.71 665.26C1184.8 665.364 1184.86 665.5 1184.89 665.667C1184.96 665.923 1185.04 666.178 1185.11 666.431C1185.22 666.76 1185.32 667.085 1185.43 667.407C1185.6 667.89 1185.78 668.366 1185.98 668.834C1186.22 669.413 1186.47 669.982 1186.75 670.539C1188 673.07 1189.64 675.372 1191.67 677.445C1194.93 680.704 1198.81 682.926 1203.33 684.111C1203.78 684.185 1204 684.482 1204 685C1204 685.445 1203.78 685.741 1203.33 685.889C1198.81 687.074 1194.89 689.333 1191.56 692.667C1188.3 695.926 1186.07 699.815 1184.89 704.333C1184.81 704.778 1184.52 705 1184 705C1183.56 705 1183.26 704.778 1183.11 704.333C1182.53 702.106 1181.68 700.032 1180.57 698.11C1179.58 696.38 1178.37 694.773 1176.95 693.292C1176.75 693.081 1176.54 692.872 1176.33 692.667C1173.07 689.333 1169.19 687.074 1164.67 685.889C1164.22 685.741 1164 685.445 1164 685C1164 684.482 1164.22 684.185 1164.67 684.111C1169.19 682.926 1173.07 680.704 1176.33 677.445C1178.42 675.362 1180.08 673.048 1181.32 670.502V670.49C1181.99 669.127 1182.53 667.7 1182.96 666.205L1183.11 665.667C1183.13 665.612 1183.15 665.559 1183.17 665.51C1183.22 665.413 1183.28 665.33 1183.34 665.26C1183.37 665.226 1183.41 665.194 1183.44 665.167C1183.52 665.111 1183.6 665.069 1183.69 665.042C1183.79 665.014 1183.89 665 1184 665Z" fill="black"/>
<path fill-rule="evenodd" clip-rule="evenodd" d="M1153.12 622.674C1160.96 622.674 1167.04 628.426 1167.76 635.95H1175.12C1182.83 635.95 1186.75 639.87 1186.75 647.482V658.462C1185.91 658.168 1185.12 658.049 1184.47 658.013L1184 658C1183.18 658 1182.26 658.124 1181.32 658.455V647.749C1181.32 643.572 1179 641.411 1175.02 641.411H1131.25C1127.17 641.411 1124.94 643.572 1124.94 647.749V687.038C1124.94 691.248 1127.17 693.376 1131.25 693.376H1165.08C1167.44 694.309 1169.5 695.693 1171.33 697.561L1171.38 697.618L1171.44 697.672C1171.83 698.05 1172.19 698.438 1172.53 698.836H1131.15C1123.44 698.836 1119.52 694.947 1119.52 687.304V647.482C1119.52 639.839 1123.44 635.95 1131.15 635.95H1138.48C1139.19 628.426 1145.3 622.674 1153.12 622.674ZM1153.12 627.832C1148.16 627.832 1144.58 631.156 1143.96 635.95H1162.3C1161.68 631.156 1158.08 627.832 1153.12 627.832Z" fill="black"/>
</g>
</g>
<g id="Thin-S">
<g id="Union_8">
<path d="M886 664C886.13 664 886.246 664.014 886.348 664.042C886.449 664.07 886.537 664.111 886.611 664.167C886.648 664.195 886.682 664.226 886.712 664.261C886.802 664.365 886.861 664.5 886.889 664.667C886.962 664.93 887.039 665.19 887.119 665.449C887.63 667.102 888.28 668.672 889.067 670.161C890.276 672.448 891.808 674.543 893.667 676.444C896.926 679.703 900.815 681.926 905.333 683.111C905.777 683.185 906 683.481 906 684C906 684.444 905.777 684.741 905.333 684.889C900.815 686.074 896.889 688.334 893.556 691.667C890.297 694.926 888.074 698.815 886.889 703.333C886.815 703.777 886.519 704 886 704C885.556 704 885.259 703.777 885.111 703.333C884.53 701.116 883.688 699.052 882.589 697.138C881.988 696.091 881.31 695.091 880.555 694.135C879.876 693.276 879.136 692.452 878.333 691.667C875.074 688.334 871.185 686.074 866.667 684.889C866.223 684.741 866 684.444 866 684C866 683.481 866.223 683.185 866.667 683.111C871.185 681.926 875.074 679.703 878.333 676.444C881.666 673.111 883.926 669.185 885.111 664.667C885.231 664.307 885.449 664.095 885.763 664.026C885.77 664.025 885.777 664.024 885.784 664.022C885.81 664.017 885.836 664.012 885.863 664.009C885.907 664.003 885.953 664 886 664Z" fill="black"/>
<path fill-rule="evenodd" clip-rule="evenodd" d="M856.415 623.855C863.582 623.855 869.272 629.149 869.971 636.09H878.515C885.444 636.09 889.067 639.769 889.067 646.602V658.676C888.102 658.217 887.164 658.053 886.42 658.012L886 658C885.922 658 885.843 658 885.763 658.003V646.768C885.763 641.91 883.079 639.408 878.417 639.408H834.427C829.61 639.408 827.081 641.91 827.081 646.768V686.938C827.081 691.809 829.61 694.297 834.427 694.297H872.325C872.919 694.778 873.492 695.298 874.043 695.861L874.139 695.957C874.683 696.489 875.187 697.043 875.654 697.615H834.329C827.399 697.615 823.776 694.006 823.776 687.104V646.602C823.776 639.699 827.399 636.09 834.329 636.09H842.859C843.559 629.149 849.261 623.855 856.415 623.855ZM856.415 627.051C851.006 627.051 846.852 630.867 846.197 636.09H866.646C865.986 630.867 861.804 627.051 856.415 627.051Z" fill="black"/>
</g>
</g>
<g id="Ultralight-S">
<g id="Union_9">
<path d="M589 664C589.278 664 589.49 664.065 589.641 664.193C589.644 664.196 589.646 664.199 589.649 664.202C589.774 664.312 589.855 664.465 589.889 664.667C589.961 664.924 590.037 665.18 590.115 665.434C590.581 666.942 591.163 668.382 591.858 669.754C593.097 672.2 594.698 674.432 596.667 676.445C599.926 679.704 603.815 681.926 608.333 683.111C608.777 683.185 609 683.482 609 684C609 684.445 608.777 684.741 608.333 684.889C603.815 686.074 599.889 688.333 596.556 691.667C593.296 694.926 591.074 698.815 589.889 703.333C589.815 703.778 589.518 704 589 704C588.556 704 588.259 703.778 588.111 703.333C587.476 700.91 586.528 698.67 585.274 696.609C584.859 695.925 584.41 695.261 583.926 694.618C583.149 693.583 582.286 692.598 581.333 691.667C578.074 688.333 574.185 686.074 569.667 684.889C569.223 684.741 569 684.445 569 684C569 683.482 569.223 683.185 569.667 683.111C574.185 681.926 578.074 679.704 581.333 676.445C584.666 673.111 586.926 669.185 588.111 664.667C588.259 664.222 588.556 664 589 664Z" fill="black"/>
<path fill-rule="evenodd" clip-rule="evenodd" d="M559.709 624.46C566.527 624.46 572.018 629.519 572.71 636.162H581.86C588.39 636.162 591.858 639.719 591.858 646.151V659.69C591.073 659.274 590.294 659.096 589.641 659.032V646.265C589.641 641.059 586.772 638.383 581.762 638.383H537.659C532.463 638.383 529.78 641.059 529.78 646.265V686.886C529.78 692.096 532.463 694.769 537.659 694.769H577.361C577.494 694.898 577.628 695.029 577.759 695.163L577.798 695.203L577.838 695.242C578.411 695.802 578.943 696.386 579.436 696.99H537.562C531.032 696.99 527.563 693.524 527.562 687.001V646.151C527.562 639.628 531.032 636.162 537.562 636.162H546.708C547.4 629.519 552.894 624.46 559.709 624.46ZM559.709 626.651C554.066 626.651 549.613 630.721 548.944 636.162H570.476C569.802 630.721 565.313 626.651 559.709 626.651Z" fill="black"/>
</g>
</g>
</g>
</g>
<defs>
<clipPath id="clip0_2742_334">
<rect width="3300" height="2200" fill="white"/>
</clipPath>
</defs>
</svg>
